<?xml version="1.0" encoding="utf-8"?>
<!-- Generator: Adobe Illustrator 16.0.0, SVG Export Plug-In . SVG Version: 6.00 Build 0)  -->
<!DOCTYPE svg PUBLIC "-//W3C//DTD SVG 1.1//EN" "http://www.w3.org/Graphics/SVG/1.1/DTD/svg11.dtd">
<svg version="1.1" xmlns="http://www.w3.org/2000/svg" xmlns:xlink="http://www.w3.org/1999/xlink" x="0px" y="0px" width="612px"
	 height="663.077px" viewBox="0 0 612 663.077" enable-background="new 0 0 612 663.077" xml:space="preserve">
<g id="Layer_1" display="none">
	<g display="inline">
		<line fill="#36489E" stroke="#000000" stroke-width="2" stroke-miterlimit="10" x1="321" y1="406.75" x2="321" y2="633.75"/>
		
			<line fill="#36489E" stroke="#000000" stroke-width="2" stroke-linecap="round" stroke-miterlimit="10" x1="481" y1="496.5" x2="481" y2="542.25"/>
		
			<line fill="#36489E" stroke="#000000" stroke-width="2" stroke-linecap="round" stroke-miterlimit="10" x1="481" y1="315.25" x2="481" y2="370.25"/>
		<path fill="#36489E" stroke="#000000" stroke-width="2" stroke-miterlimit="10" d="M277.209,608"/>
		<path fill="#36489E" stroke="#000000" stroke-width="2" stroke-miterlimit="10" d="M277.209,381"/>
		
			<line fill="#36489E" stroke="#000000" stroke-width="2" stroke-linecap="round" stroke-miterlimit="10" x1="366" y1="436.98" x2="366" y2="562.266"/>
		<line fill="#36489E" stroke="#000000" stroke-width="2" stroke-miterlimit="10" x1="206" y1="396" x2="206" y2="441.75"/>
		
			<line fill="#36489E" stroke="#000000" stroke-width="2" stroke-linecap="round" stroke-miterlimit="10" x1="206" y1="467.131" x2="206" y2="523.131"/>
		
			<line fill="#36489E" stroke="#000000" stroke-width="2" stroke-linecap="round" stroke-miterlimit="10" x1="235.083" y1="483.764" x2="235.083" y2="506.328"/>
		
			<line fill="#36489E" stroke="#000000" stroke-width="2" stroke-linecap="round" stroke-miterlimit="10" x1="231.153" y1="410.385" x2="231.153" y2="427.31"/>
		
			<line fill="#36489E" stroke="#000000" stroke-width="2" stroke-linecap="round" stroke-miterlimit="10" x1="258.667" y1="426.119" x2="258.667" y2="471.869"/>
		
			<line fill="#36489E" stroke="#000000" stroke-width="2" stroke-linecap="round" stroke-miterlimit="10" x1="258.667" y1="497.25" x2="258.666" y2="554.125"/>
		
			<line fill="#36489E" stroke="#000000" stroke-width="2" stroke-linecap="round" stroke-miterlimit="10" x1="161" y1="440.5" x2="161" y2="542.25"/>
		
			<line fill="#36489E" stroke="#000000" stroke-width="2" stroke-linecap="round" stroke-miterlimit="10" x1="161" y1="315.25" x2="161" y2="416"/>
		
			<line fill="#36489E" stroke="#000000" stroke-width="2" stroke-linecap="round" stroke-miterlimit="10" x1="481" y1="542.25" x2="321" y2="633.75"/>
		<line fill="#36489E" stroke="#000000" stroke-width="2" stroke-miterlimit="10" x1="161" y1="315.25" x2="206" y2="289.625"/>
		
			<line fill="#36489E" stroke="#000000" stroke-width="2" stroke-miterlimit="10" x1="206" y1="441.625" x2="231.153" y2="427.302"/>
		
			<line fill="#36489E" stroke="#000000" stroke-width="2" stroke-miterlimit="10" x1="206" y1="522.875" x2="235.083" y2="506.313"/>
		<line fill="#36489E" stroke="#000000" stroke-width="2" stroke-miterlimit="10" x1="321" y1="406.75" x2="481" y2="315.25"/>
		
			<line fill="#36489E" stroke="#000000" stroke-width="2" stroke-linecap="round" stroke-linejoin="round" stroke-miterlimit="10" x1="321.104" y1="355.45" x2="436.209" y2="289.625"/>
		
			<line fill="#36489E" stroke="#000000" stroke-width="2" stroke-linecap="round" stroke-miterlimit="10" x1="366" y1="516.516" x2="441" y2="473.625"/>
		
			<line fill="#36489E" stroke="#000000" stroke-width="2" stroke-linecap="round" stroke-miterlimit="10" x1="481" y1="370.25" x2="366" y2="436.98"/>
		
			<line fill="#36489E" stroke="#000000" stroke-width="2" stroke-linecap="round" stroke-miterlimit="10" x1="366" y1="562.266" x2="481" y2="496.5"/>
		<line fill="#36489E" stroke="#000000" stroke-width="2" stroke-miterlimit="10" x1="321" y1="633.75" x2="161" y2="542.25"/>
		<line fill="#36489E" stroke="#000000" stroke-width="2" stroke-miterlimit="10" x1="481" y1="315.25" x2="436.209" y2="289.625"/>
		<path fill="#36489E" stroke="#000000" stroke-width="2" stroke-miterlimit="10" d="M321,520.25"/>
		<path fill="#36489E" stroke="#000000" stroke-width="2" stroke-linecap="round" stroke-miterlimit="10" d="M169.237,433.46"/>
		
			<line fill="#36489E" stroke="#000000" stroke-width="2" stroke-linecap="round" stroke-miterlimit="10" x1="206" y1="523.131" x2="258.666" y2="553.25"/>
		
			<line fill="#36489E" stroke="#000000" stroke-width="2" stroke-linecap="round" stroke-miterlimit="10" x1="206" y1="467.131" x2="258.667" y2="497.25"/>
		
			<line fill="#36489E" stroke="#000000" stroke-width="2" stroke-linecap="round" stroke-miterlimit="10" x1="441" y1="473.625" x2="481" y2="496.5"/>
		
			<line fill="#36489E" stroke="#000000" stroke-width="2" stroke-linecap="round" stroke-miterlimit="10" x1="235.083" y1="506.313" x2="258.667" y2="519.375"/>
		
			<line fill="#36489E" stroke="#000000" stroke-width="2" stroke-linecap="round" stroke-miterlimit="10" x1="206" y1="396" x2="258.667" y2="426.119"/>
		
			<line fill="#36489E" stroke="#000000" stroke-width="2" stroke-linecap="round" stroke-miterlimit="10" x1="206" y1="441.75" x2="258.667" y2="471.869"/>
		<line fill="#36489E" stroke="#000000" stroke-width="2" stroke-miterlimit="10" x1="161" y1="315.25" x2="321" y2="406.75"/>
		
			<line fill="#36489E" stroke="#000000" stroke-width="2" stroke-linecap="round" stroke-linejoin="round" stroke-miterlimit="10" x1="321.104" y1="355.45" x2="206" y2="289.625"/>
		
			<line fill="#36489E" stroke="#000000" stroke-width="2" stroke-linecap="round" stroke-miterlimit="10" x1="161" y1="416" x2="169.237" y2="433.46"/>
		
			<line fill="#36489E" stroke="#000000" stroke-width="2" stroke-linecap="round" stroke-miterlimit="10" x1="161" y1="440.5" x2="169.237" y2="433.46"/>
		
			<line fill="#36489E" stroke="#000000" stroke-width="2" stroke-linecap="round" stroke-miterlimit="10" x1="231.153" y1="427.302" x2="258.667" y2="443.036"/>
	</g>
</g>
<g id="Layer_2">
	<g>
		
			<polygon fill="#114C5C" stroke="#E26525" stroke-width="2" stroke-linecap="round" stroke-linejoin="round" stroke-miterlimit="10" points="
			306,225.139 306,648.894 604.683,478.085 604.683,392.68 390.004,515.45 390.004,281.571 604.683,157.001 604.683,54.33 		"/>
		<polygon fill="#F68B28" stroke="#E26525" stroke-width="2" stroke-linejoin="round" stroke-miterlimit="10" points="7.318,54.329 
			306,225.139 604.683,54.33 521.068,6.493 306.195,129.374 91.322,6.493 		"/>
		<polygon fill="#114C5C" stroke="#E26525" stroke-width="2" stroke-linejoin="round" stroke-miterlimit="10" points="
			7.318,478.085 306,648.894 306,225.139 7.318,54.329 7.318,242.406 22.694,275 7.318,288.142 		"/>
		<polygon fill="none" stroke="#E26525" stroke-width="2" stroke-miterlimit="10" points="91.321,441.917 189.637,498.618 
			189.639,394.08 91.321,337.855 		"/>
		
			<polygon fill="#F68B28" stroke="#E26525" stroke-width="2" stroke-linecap="round" stroke-linejoin="round" stroke-miterlimit="10" points="
			530.012,349.979 390.004,426.458 390.004,515.45 604.683,392.68 		"/>
		<polygon fill="none" stroke="#E26525" stroke-width="2" stroke-miterlimit="10" points="91.321,290.242 91.322,205.071 
			189.638,261.295 189.638,346.7 		"/>
		<polygon fill="#F68B28" stroke="#E26525" stroke-width="2" stroke-linejoin="round" stroke-miterlimit="10" points="
			91.321,290.242 189.638,346.7 189.637,292.875 138.276,263.503 		"/>
		<polygon fill="#F68B28" stroke="#E26525" stroke-width="2" stroke-linejoin="round" stroke-miterlimit="10" points="
			91.322,205.071 138.276,233.183 138.276,263.503 91.321,290.242 		"/>
		<polygon fill="#F68B28" stroke="#E26525" stroke-width="2" stroke-linejoin="round" stroke-miterlimit="10" points="
			91.321,337.855 91.321,441.917 145.614,411.027 145.614,368.905 		"/>
		<polygon fill="#F68B28" stroke="#E26525" stroke-width="2" stroke-linejoin="round" stroke-miterlimit="10" points="
			189.637,498.618 91.321,441.917 145.614,411.027 189.639,435.383 		"/>
		<polygon fill="#FFFFFF" stroke="#E26525" stroke-miterlimit="10" points="189.638,261.295 138.276,233.183 138.276,263.503 
			189.637,292.875 		"/>
		<polygon fill="#FFFFFF" stroke="#E26525" stroke-miterlimit="10" points="189.639,394.08 145.614,368.905 145.614,411.027 
			189.639,435.383 		"/>
	</g>
</g>
</svg>
